<svg width="13" height="12" xmlns="http://www.w3.org/2000/svg">

  <g>
    <title>background</title>
    <rect fill="none" id="canvas_background" height="402" width="582" y="-1" x="-1"/>
  </g>
  <g>
    <title>Layer 1</title>
    <path id="svg_1" fill="#D22856" d="m6.46867,12c-0.10977,0.0014 -0.21855,-0.0202 -0.31879,-0.0633c-0.10025,-0.0432 -0.18955,-0.1069 -0.26173,-0.1867c-3.92889,-4.33 -4.8515,-5.31 -5.02773,-5.58c-0.55333,-0.67503 -0.85626,-1.50944 -0.86042,-2.37c0.00441,-0.72575 0.22306,-1.43527 0.63034,-2.0455c0.40728,-0.61022 0.98634,-1.0959 1.66939,-1.40017c0.68305,-0.30427 1.44182,-0.41454 2.18748,-0.31791c0.74566,0.09664 1.44735,0.39619 2.02293,0.86358c0.7176,-0.58051 1.62398,-0.89909 2.56052,-0.9c1.04294,0.00265 2.04224,0.40417 2.77874,1.11652c0.7365,0.71236 1.1501,1.67739 1.1501,2.68348c0.0145,0.87715 -0.315,1.7272 -0.9226,2.38l-5.03807,5.56c-0.07103,0.0785 -0.15867,0.1414 -0.25701,0.1846c-0.09834,0.0431 -0.20512,0.0654 -0.31315,0.0654l0,0.01zm-4.39538,-6.72c0.2177,0.26 2.56052,2.84 4.39538,4.86l4.47833,-4.94c0.3603,-0.38202 0.5535,-0.8837 0.539,-1.4c0,-0.61795 -0.2544,-1.2106 -0.7074,-1.64756c-0.453,-0.43696 -1.06734,-0.68244 -1.70794,-0.68244c-0.38059,0.00297 -0.75554,0.08909 -1.09668,0.2519c-0.34113,0.1628 -0.63959,0.39806 -0.87295,0.6881c-0.07537,0.08603 -0.16893,0.15553 -0.27442,0.20382c-0.10548,0.04829 -0.22046,0.07427 -0.3372,0.07618c-0.11604,-0.00153 -0.23005,-0.0295 -0.33274,-0.08164c-0.10269,-0.05214 -0.19115,-0.12696 -0.25815,-0.21836c-0.23068,-0.28896 -0.52765,-0.52242 -0.86759,-0.68204c-0.33994,-0.15963 -0.71361,-0.24108 -1.09167,-0.23796c-0.45421,0.00534 -0.89773,0.1336 -1.28007,0.37016c-0.38235,0.23657 -0.68816,0.57195 -0.88261,0.96794c-0.19445,0.396 -0.26974,0.83671 -0.21728,1.27196c0.05246,0.43525 0.23055,0.84754 0.51399,1.18994l0,0.01z"/>
    <path d="m5.13679,5.529928c-0.031338,0.031338 -0.068505,0.021703 -0.125352,0.062676c-0.035954,0.025914 -0.031338,0.031338 -0.062676,0.031338c-0.031338,0 -0.062676,0 -0.125353,0c-0.031338,0 -0.094015,0 -0.125352,0c-0.031338,0 -0.157529,0.0072 -0.188029,0c-0.0682,-0.0161 -0.088491,-0.046576 -0.156691,-0.062676c-0.0305,-0.0072 -0.090409,-0.039935 -0.156691,-0.062676c-0.151145,-0.051859 -0.210342,-0.093438 -0.376058,-0.125352c-0.092318,-0.017779 -0.178422,-0.045716 -0.219367,-0.062676c-0.057905,-0.023985 -0.062676,0 -0.125352,-0.031338c0,0 -0.032176,0.0072 -0.062676,0c-0.0682,-0.0161 -0.121225,-0.040382 -0.250705,-0.094015c-0.091556,-0.037924 -0.220205,-0.086814 -0.250705,-0.094014c-0.0682,-0.0161 -0.071855,-0.040517 -0.094014,-0.062676c-0.02216,-0.02216 -0.053041,-0.037167 -0.094014,-0.094014c-0.025914,-0.035953 -0.084379,-0.131182 -0.125352,-0.188029c-0.077741,-0.10786 -0.116394,-0.163324 -0.188029,-0.250705c-0.028098,-0.034274 -0.094014,-0.094015 -0.094014,-0.125353c0,-0.062676 0,-0.125352 0,-0.219367c0,-0.062676 -0.015238,-0.119829 -0.031338,-0.188029c-0.0216,-0.091499 0,-0.094014 0,-0.188029c0,-0.062676 0.031338,-0.125352 0.031338,-0.156691c0,-0.062676 0,-0.094014 0,-0.156691c0,-0.094015 0,-0.125353 0,-0.219367c0,-0.031338 0,-0.062676 0,-0.062676c0,-0.031338 -0.011993,-0.065062 0,-0.094015c0.01696,-0.040945 0.024138,-0.063514 0.031338,-0.094014c0.0161,-0.0682 0.031338,-0.094014 0.094014,-0.156691c0.031338,-0.031338 0.094014,-0.125353 0.125353,-0.156691c0.094015,-0.094014 0.103729,-0.104591 0.188029,-0.156691c0.0377,-0.0233 0.084407,-0.108392 0.125353,-0.125353c0.028953,-0.011992 0.033724,-0.019345 0.062676,-0.031338c0.040945,-0.01696 0.057153,-0.046577 0.125353,-0.062676c0.0305,-0.0072 0.094853,-0.024138 0.125352,-0.031338c0.1364,-0.0322 0.185965,-0.067198 0.250705,-0.094014c0.091556,-0.037924 0.188029,-0.031338 0.219367,-0.031338c0.031338,0 0.062676,0 0.156691,0c0.031338,0 0.125353,-0.031338 0.156691,-0.031338c0.094015,0 0.094015,0 0.156691,0c0.062676,0 0.156691,0 0.188029,0c0.031338,0 0.127029,-0.0144 0.188029,0c0.068199,0.0161 0.094014,0.031338 0.125352,0.031338c0,0 0.033724,0.019346 0.062676,0.031338c0.040945,0.01696 0.068505,0.021703 0.125352,0.062676c0.035954,0.025914 0.062676,0.062676 0.094015,0.094014c0.031338,0.031338 0.053041,0.037167 0.094014,0.094014c0.025914,0.035953 0.062676,0.062676 0.062676,0.062676c0.031338,0.062676 0.077054,0.053069 0.094014,0.094015c0.011992,0.028953 0.031338,0.062676 0.031338,0.062676c0.031338,0.031338 0.031338,0.031338 0.031338,0.031338c0,0 0.031338,0 0.094015,0c0,0 0.062676,0 0.125352,0c0.062676,0 0.125352,0 0.188029,0c0,0 0.031338,0 0.031338,0c0.031338,0.031338 0.057174,0.034406 0.094014,0.094014c0.016476,0.026658 0.088491,0.046577 0.156691,0.062676c0.0915,0.0216 0.156691,0 0.250705,0c0.031338,0 0.157529,0.0072 0.188029,0c0.0682,-0.0161 0.103193,-0.009179 0.125353,-0.031338c0.02216,-0.02216 0.041053,-0.010576 0.125352,-0.062676c0.0377,-0.0233 0.096472,-0.05609 0.188029,-0.094014c0.06474,-0.026816 0.0748,-0.060094 0.156691,-0.094014c0.028953,-0.011993 0.0964,-0.050684 0.125353,-0.062676c0.08189,-0.03392 0.0748,-0.122771 0.156691,-0.156691c0.028953,-0.011993 0.089399,-0.068101 0.125352,-0.094014c0.056847,-0.040973 0.112372,-0.018358 0.156691,-0.062676c0.02216,-0.02216 0.062676,-0.031338 0.062676,-0.031338c0.062676,-0.031338 0.094015,-0.062676 0.125352,-0.062676c0.062676,0 0.095691,-0.016938 0.156691,-0.031338c0.068199,-0.0161 0.103729,-0.041915 0.188028,-0.094014c0.037701,-0.0233 0.0894,-0.068101 0.125353,-0.094014c0.056848,-0.040973 0.08849,-0.046577 0.156691,-0.062676c0.0305,-0.0072 0.065062,-0.019346 0.094014,-0.031338c0.040946,-0.01696 0.053069,-0.045716 0.094015,-0.062676c0.028953,-0.011992 0.125352,-0.031338 0.156691,-0.031338c0.094014,0 0.125352,0 0.250705,0c0.062676,0 0.250706,0 0.313381,0c0.031339,0 0.125353,0 0.156691,0c0.062676,0 0.125353,0.031338 0.219367,0.031338c0.031339,0 0.094015,0 0.125353,0c0.031339,0 0.033724,-0.011993 0.062676,0c0.040945,0.01696 0.031338,0.031338 0.062676,0.062676c0.062676,0.062676 0.043462,0.12277 0.125352,0.156691c0.028954,0.011993 0.050684,0.065062 0.062676,0.094014c0.03392,0.081891 0.077539,0.098695 0.094015,0.125353c0.036839,0.059608 0.071855,0.040516 0.094014,0.062676c0.02216,0.02216 0.031338,0.062676 0.062676,0.094014c0.031338,0.031338 0.062676,0.031338 0.094014,0.062676c0,0 0.031338,0.031338 0.031338,0.031338c0.062676,0.062676 0.119851,0.034406 0.156691,0.094014c0.016476,0.026658 0.040517,0.009179 0.062676,0.031338c0.02216,0.02216 0.071855,0.071855 0.094014,0.094014c0.02216,0.02216 0.019346,0.065062 0.031339,0.094014c0.01696,0.040945 0.05609,0.065135 0.094014,0.156691c0.026816,0.06474 0.077055,0.147083 0.094015,0.188029c0.023985,0.057905 -0.013491,0.098182 0.031338,0.219367c0.024312,0.065722 0.031338,0.188029 0.031338,0.250705c0,0.125353 0,0.188029 0,0.313381c0,0.062676 0,0.156691 0,0.219367c0,0.094014 0,0.094014 0,0.188029c0,0.031338 0,0.188029 0,0.219367c0,0.062676 -0.015238,0.088491 -0.031338,0.156691c-0.0144,0.061 -0.010576,0.103729 -0.062676,0.188029c-0.023299,0.0377 -0.053596,0.095359 -0.062676,0.125353c-0.032743,0.108143 -0.103736,0.147884 -0.188028,0.250705c-0.071635,0.087381 -0.190934,0.247929 -0.250706,0.313381c-0.165051,0.180736 -0.227357,0.30986 -0.376058,0.658101c-0.066273,0.155204 -0.152674,0.378863 -0.219367,0.470072c-0.118441,0.161978 -0.188027,0.250706 -0.344719,0.407396c-0.031339,0.031338 -0.197999,0.206522 -0.282043,0.282043c-0.182056,0.163592 -0.270459,0.299683 -0.50141,0.438734c-0.120067,0.072289 -0.184316,0.131315 -0.282043,0.188029c-0.060607,0.035172 -0.119481,0.100495 -0.188028,0.156691c-0.08738,0.071635 -0.163671,0.116703 -0.282043,0.219367c-0.100442,0.087113 -0.277758,0.255306 -0.344719,0.313381c-0.118373,0.102664 -0.132332,0.116703 -0.250705,0.219367c-0.066962,0.058076 -0.182158,0.163172 -0.250705,0.219367c-0.087381,0.071635 -0.15669,0.125353 -0.219367,0.188029c-0.031338,0.031338 -0.062676,0.094014 -0.094015,0.125353c-0.031338,0.031338 -0.062676,0.031338 -0.062676,0.062675c0,0 -0.031338,0 -0.031338,0c-0.031338,0.031339 -0.040517,0.040517 -0.062676,0.062676c-0.02216,0.02216 -0.031338,0 -0.031338,0c0,0 -0.053446,-0.073524 -0.125352,-0.125352c-0.056848,-0.040974 -0.100994,-0.054028 -0.219367,-0.156692c-0.033481,-0.029037 -0.108132,-0.13947 -0.188029,-0.219367c-0.159793,-0.159794 -0.179379,-0.289022 -0.282043,-0.407395c-0.058075,-0.066962 -0.188029,-0.219367 -0.250705,-0.282043c-0.062676,-0.062676 -0.185886,-0.221667 -0.219367,-0.250705c-0.118373,-0.102664 -0.188029,-0.125353 -0.250705,-0.219367c-0.062676,-0.094015 -0.211933,-0.25878 -0.313382,-0.34472c-0.205696,-0.17425 -0.273952,-0.22962 -0.470072,-0.376058c-0.090538,-0.067602 -0.219367,-0.219367 -0.313382,-0.313381c-0.156691,-0.156691 -0.21376,-0.260066 -0.313381,-0.313381c-0.02763,-0.014787 -0.057174,-0.097082 -0.094015,-0.156691c-0.082377,-0.133289 -0.131315,-0.184316 -0.188029,-0.282043c-0.035172,-0.060608 -0.084379,-0.193858 -0.125352,-0.250705c-0.077741,-0.10786 -0.108392,-0.115745 -0.125353,-0.156691c-0.023985,-0.057906 0.023985,-0.098786 0,-0.156691c-0.01696,-0.040945 -0.031338,-0.125352 -0.031338,-0.188029c0,-0.188029 0,-0.282043 0,-0.532748c0,-0.062676 -0.003829,-0.125587 0,-0.156691c0.015787,-0.128242 -0.002654,-0.229138 0.094014,-0.50141c0.023445,-0.066035 0.071273,-0.153085 0.094015,-0.219367c0.051859,-0.151145 0.043406,-0.231025 0.125352,-0.344719c0.051827,-0.071907 0.213005,-0.196067 0.250705,-0.219367c0.0843,-0.0521 0.313381,-0.125352 0.407396,-0.156691c0.188029,-0.062676 0.20976,-0.077055 0.250705,-0.094015c0.028953,-0.011993 0.062676,0 0.062676,0c0,0.062676 -0.006172,0.155766 -0.031338,0.34472c-0.04158,0.312188 -0.036365,0.65695 -0.062676,0.783453c-0.038816,0.186628 -0.031338,0.250705 -0.094015,0.376058c-0.031338,0.062676 -0.094014,0.125352 -0.125352,0.188029c0,0 0.005424,0.004615 0.031338,-0.031338c0.081946,-0.113694 0.143241,-0.17689 0.313381,-0.470072c0.070344,-0.121216 0.218283,-0.283507 0.344719,-0.376058c0.217531,-0.15923 0.313382,-0.188029 0.470072,-0.188029c0.031338,0 0.031338,0 0.031338,0c0,0.062676 0,0.156691 -0.094015,0.532748c-0.094014,0.376058 -0.303853,1.287605 -0.407396,1.629583c-0.229741,0.758781 -0.344719,0.940144 -0.376058,1.034159c0,0 -0.007668,-0.035475 0.062676,-0.156691c0.056714,-0.097727 0.167135,-0.274221 0.376058,-0.564086c0.396403,-0.54998 0.64394,-0.963136 1.00282,-1.723598c0.131725,-0.279124 0.313381,-0.658101 0.344719,-0.720777c0,0 0,0 0,0.031338c0,0 0.031338,0 0.031338,0.062676c0,0.062676 -0.032283,0.250519 -0.062676,0.407396c-0.097033,0.500834 -0.36024,1.564969 -0.407396,2.005641c-0.0468,0.437355 -0.031338,0.564086 -0.031338,0.626763c0,0.094014 0,0.125352 0,0.156691c0,0.031338 -0.031338,0.062676 -0.031338,0.125352c0,0.156691 0.015593,0.279718 0.031338,0.438734c0.003088,0.031186 0.031338,0.094015 0.062676,0.094015c0.031338,0 0.05163,0.030477 0.188029,0.062676c0.0305,0.0072 0.189324,0.026551 0.313382,0.062676c0.095148,0.027707 0.27652,0.077914 0.344719,0.094014c0.091499,0.0216 0.125352,0 0.188029,0c0,0 0.059741,-0.034578 0.094015,-0.062676c0.087381,-0.071635 0.145644,-0.124491 0.282043,-0.156691c0.0915,-0.0216 0.348668,-0.1198 0.438734,-0.188029c0.230302,-0.174465 0.334006,-0.293545 0.50141,-0.438734c0.118373,-0.102664 0.358449,-0.272837 0.438734,-0.407396c0.229902,-0.38532 0.24903,-0.582493 0.470072,-0.940145c0.082377,-0.133289 0.180807,-0.200282 0.250706,-0.313381c0.0521,-0.0843 0.158945,-0.249241 0.219367,-0.344719c0.097715,-0.154409 0.156691,-0.219367 0.219367,-0.34472c0.031338,-0.062676 0.125352,-0.219367 0.156691,-0.282043c0.062676,-0.125353 0.124491,-0.176982 0.156691,-0.313382c0.0216,-0.091499 0.00517,-0.250918 0,-0.313381c-0.015723,-0.189973 -0.057888,-0.283338 -0.094014,-0.407396c-0.027707,-0.095148 -0.123406,-0.252189 -0.219367,-0.376058c-0.12289,-0.15863 -0.168328,-0.180092 -0.250706,-0.313381c-0.03684,-0.059608 -0.062676,-0.062676 -0.125352,-0.125352c0,0 -0.062676,0.031338 -0.156691,0.062676c-0.094015,0.031338 -0.407396,0.188029 -0.595426,0.250705c-0.282043,0.094014 -0.423198,0.126465 -0.564086,0.219367c-0.036999,0.024397 -0.125352,0.062676 -0.156691,0.062676c-0.094015,0 -0.130124,0.007353 -0.188029,0.031338c-0.040946,0.01696 -0.111791,0.102891 -0.156691,0.156691c-0.100399,0.1203 -0.180806,0.106268 -0.250705,0.219367c-0.0521,0.084299 -0.049505,0.161607 -0.125353,0.34472c-0.053632,0.12948 -0.118021,0.28369 -0.156691,0.438734c-0.079177,0.317455 -0.172283,0.499085 -0.188029,0.658101c-0.003088,0.031186 0.000235,0.152862 0.031338,0.156691c0.128242,0.015788 0.260477,0.065329 0.532748,-0.031338c0.198107,-0.070336 0.669052,-0.294096 0.846129,-0.407396c0.33805,-0.216295 0.39946,-0.387694 0.532749,-0.470072c0.059608,-0.03684 0.195055,-0.153646 0.219367,-0.219367c0.044829,-0.121184 0.062675,-0.188029 0.062675,-0.219367c0,-0.031338 0,-0.062676 0,-0.094014c0,0 -0.02721,0.009044 -0.156691,0.062676c-0.27467,0.113771 -0.497593,0.157681 -0.846129,0.50141c-0.205713,0.202876 -0.448719,0.778785 -0.532748,0.971483c-0.107026,0.245432 -0.241029,0.566337 -0.282043,0.720777c-0.025436,0.09578 -0.083943,0.286025 -0.125352,0.376058c-0.076355,0.166014 -0.125353,0.219367 -0.282043,0.376058c-0.094015,0.094015 -0.20976,0.171069 -0.250705,0.188029c-0.086858,0.035977 -0.156691,0 -0.250705,0c0,0 0,0 0,-0.094014c0,-0.031338 0.058963,-0.131316 0.156691,-0.188029c0.363647,-0.211032 0.610357,-0.255484 1.128173,-0.564086c0.194123,-0.115692 0.754393,-0.371603 1.00282,-0.50141c0.348021,-0.181846 0.407396,-0.250705 0.470073,-0.282043c0,0 0.051189,-0.094718 0.062676,-0.188029c0.015787,-0.128242 0.031338,-0.156691 0.031338,-0.156691c0,0 -0.019345,-0.033723 -0.031338,-0.062676c-0.01696,-0.040946 -0.031339,-0.031338 -0.062676,-0.062676c0,0 -0.031339,-0.031338 -0.062676,-0.062676c-0.031338,-0.031338 -0.033855,-0.105811 -0.156691,-0.156691c-0.028954,-0.011993 -0.157148,-0.040602 -0.250706,-0.031338c-0.318032,0.031491 -0.514362,0.069474 -1.065496,0.376058c-0.41803,0.232541 -1.023266,1.063028 -1.441554,1.629583c-0.343217,0.464875 -0.783453,0.720777 -0.971482,0.720777c-0.094015,0 -0.188029,0 -0.188029,0c-0.062676,-0.125352 -0.073498,-0.251828 -0.094015,-0.438734c-0.063053,-0.574397 -0.343802,-1.01444 -0.438734,-1.69226c-0.030427,-0.217247 -0.025848,-1.035226 0,-1.34754c0.015723,-0.189973 0.062676,-0.250705 0.094015,-0.34472l0,-0.031338l0,0" id="svg_4" stroke-width="1.5" stroke="#D22856" fill="none"/>
  </g>
</svg>
