<svg width="79" height="63" viewBox="0 0 79 63" fill="none" xmlns="http://www.w3.org/2000/svg">
<path d="M30.6607 0.662924L34.4428 6.78436C34.2215 6.9012 33.9681 7.03262 33.6862 7.1788C31.1177 8.5109 26.1843 11.0695 21.5936 15.0063C16.0973 19.7196 11.0081 26.4752 11.0081 35.5838V36.2953L11.6773 36.0543L11.6775 36.0542L11.6777 36.0541L11.6798 36.0534L11.6897 36.0499L11.7322 36.0351C11.7705 36.0219 11.8283 36.0024 11.9044 35.9776C12.0565 35.9279 12.2815 35.8572 12.5689 35.7744C13.1441 35.6088 13.9678 35.3955 14.9568 35.2061C16.9398 34.8263 19.5629 34.5477 22.1708 34.928C24.7743 35.3076 27.3328 36.3385 29.2447 38.5522C31.1567 40.7659 32.4778 44.2271 32.4778 49.5783C32.4778 51.1164 31.8155 54.369 29.7849 57.2253C27.7735 60.0545 24.4191 62.5 18.9793 62.5C14.3963 62.5 10.9772 61.4723 8.41843 59.8519C5.85966 58.2315 4.12703 55.9969 2.95193 53.5275C0.591127 48.5665 0.5 42.7057 0.5 39.1293C0.5 25.792 7.48672 16.5079 14.822 10.3517C20.7064 5.41329 26.7171 2.54944 29.5814 1.18472C30.0182 0.976606 30.3818 0.803354 30.6607 0.662924ZM74.5528 0.664679L78.2997 6.7862C78.0583 6.91525 77.7774 7.06218 77.4618 7.22725C74.8925 8.57102 70.0245 11.1171 65.4882 15.0062C59.991 19.7192 54.8914 26.4749 54.8914 35.5838V36.2953L55.5606 36.0543L55.5608 36.0542L55.561 36.0541L55.5631 36.0534L55.573 36.0499L55.6156 36.0351C55.6538 36.0219 55.7116 36.0024 55.7877 35.9776C55.9398 35.9279 56.1648 35.8572 56.4522 35.7744C57.0274 35.6088 57.8511 35.3955 58.8401 35.2061C60.8231 34.8263 63.4462 34.5477 66.0541 34.928C68.6576 35.3076 71.2161 36.3385 73.128 38.5522C75.04 40.7659 76.3611 44.2271 76.3611 49.5783C76.3611 51.1164 75.6988 54.3691 73.6693 57.2254C71.6591 60.0546 68.3073 62.5 62.8726 62.5C58.2871 62.5 54.8661 61.4723 52.3059 59.8518C49.7457 58.2314 48.0122 55.9967 46.8365 53.5274C44.4744 48.5664 44.3833 42.7057 44.3833 39.1293C44.3833 25.7922 51.3773 16.5081 58.7177 10.3518C64.5896 5.42721 70.5806 2.56822 73.4523 1.19781C73.8985 0.984885 74.2694 0.807896 74.5528 0.664679Z" fill="#EFEFEF" stroke="black"/>
</svg>
